<svg height="512pt" viewBox="0 -75 512.00075 512" width="512pt" xmlns="http://www.w3.org/2000/svg"><path d="m55.140625 4.792969c-6.050781 13.054687-16.535156 23.539062-29.589844 29.589843-6.226562 2.882813-6.433593 11.660157-.34375 14.832032l37.570313 19.578125 26.769531-26.773438-19.574219-37.570312c-3.171875-6.085938-11.949218-5.882813-14.832031.34375zm0 0" fill="#68bf97"/><path d="m183.984375 42.007812c-31.773437-31.777343-84.671875-30.398437-118.144531 3.074219-33.476563 33.476563-34.851563 86.371094-3.074219 118.148438 31.773437 31.773437 84.671875 30.398437 118.144531-3.074219 33.476563-33.476562 34.851563-86.371094 3.074219-118.148438zm0 0" fill="#7bd0a7"/><path d="m133.398438 73.441406c-1.917969 0-3.835938-.730468-5.300782-2.195312-2.929687-2.929688-2.929687-7.679688 0-10.605469l12.507813-12.507813c2.925781-2.929687 7.675781-2.929687 10.605469 0 2.929687 2.929688 2.929687 7.679688 0 10.605469l-12.507813 12.507813c-1.464844 1.464844-3.382813 2.195312-5.304687 2.195312zm0 0" fill="#68bf97"/><path d="m134.613281 113.476562c-1.921875 0-3.839843-.730468-5.304687-2.195312-2.929688-2.929688-2.929688-7.679688 0-10.605469l22.101562-22.101562c2.929688-2.929688 7.679688-2.929688 10.605469 0 2.929687 2.929687 2.929687 7.675781 0 10.605469l-22.101563 22.101562c-1.464843 1.464844-3.382812 2.195312-5.300781 2.195312zm0 0" fill="#68bf97"/><path d="m242.882812 207.863281h-46.820312v-131.347656c0-7.378906 5.980469-13.363281 13.363281-13.363281h20.09375c7.378907 0 13.363281 5.984375 13.363281 13.363281zm0 0" fill="#495059"/><path d="m121.757812 362.988281c-8.917968 0-16.152343-7.234375-16.152343-16.152343v-57.035157c0-8.917969 7.234375-16.152343 16.152343-16.152343 8.921876 0 16.152344 7.234374 16.152344 16.152343v57.035157c0 8.917968-7.230468 16.152343-16.152344 16.152343zm0 0" fill="#ebd15e"/><path d="m371.210938 362.988281c-8.921876 0-16.15625-7.234375-16.15625-16.152343v-57.035157c0-8.917969 7.234374-16.152343 16.15625-16.152343 8.917968 0 16.148437 7.234374 16.148437 16.152343v57.035157c.003906 8.917968-7.230469 16.152343-16.148437 16.152343zm0 0" fill="#ebd15e"/><path d="m377.160156 172.402344-13.59375 20.917968c-7.28125 11.207032-19.738281 17.964844-33.101562 17.964844h-56.636719c-16.097656 0-30.582031-9.773437-36.605469-24.703125l-23.046875-57.101562c-3.195312-7.917969-10.878906-13.101563-19.417969-13.101563h-173.222656l14.707032 109.507813c4.914062 36.597656 36.144531 63.914062 73.070312 63.914062h277.378906c33.820313 0 62.703125-24.402343 68.355469-57.746093l13.503906-79.707032h-54.441406c-14.917969 0-28.820313 7.546875-36.949219 20.054688zm0 0" fill="#eb8d9a"/><path d="m248.871094 202.371094c-5.046875-4.117188-9.109375-9.484375-11.652344-15.785156l-23.046875-57.105469c-3.195313-7.917969-10.875-13.101563-19.414063-13.101563h-173.222656l14.707032 109.507813c4.914062 36.597656 36.144531 63.914062 73.070312 63.914062h176.867188c-23.6875-17.488281-37.28125-58.324219-37.308594-87.429687zm0 0" fill="#db818d"/><path d="m398.859375 362.988281h-325.308594c-8.921875 0-16.152343-7.234375-16.152343-16.152343 0-8.921876 7.230468-16.152344 16.152343-16.152344h325.308594c23.449219 0 45.496094-9.132813 62.078125-25.714844l23.488281-23.488281c6.308594-6.308594 16.535157-6.308594 22.84375 0 6.308594 6.308593 6.308594 16.535156 0 22.84375l-23.488281 23.488281c-22.683594 22.683594-52.84375 35.175781-84.921875 35.175781zm0 0" fill="#f6e06a"/><path d="m330.464844 227.441406h-56.636719c-22.800781 0-43.050781-13.664062-51.585937-34.8125l-23.046876-57.101562c-.734374-1.820313-2.476562-2.992188-4.4375-2.992188h-178.605468c-8.921875-.003906-16.152344-7.234375-16.152344-16.15625 0-8.917968 7.230469-16.152344 16.152344-16.152344h178.605468c15.207032 0 28.707032 9.109376 34.394532 23.210938l23.046875 57.101562c3.578125 8.867188 12.070312 14.597657 21.628906 14.597657h56.636719c7.925781 0 15.238281-3.96875 19.558594-10.617188l13.597656-20.917969c11.148437-17.160156 30.023437-27.402343 50.488281-27.402343h59.828125c8.921875 0 16.152344 7.230469 16.152344 16.152343 0 8.917969-7.230469 16.152344-16.152344 16.152344h-59.828125c-9.484375 0-18.234375 4.746094-23.402344 12.699219l-13.597656 20.921875c-10.304687 15.851562-27.742187 25.316406-46.644531 25.316406zm0 0" fill="#f6e06a"/><path d="m203.011719 250.949219h-83.167969c-20.25 0-36.730469-16.476563-36.730469-36.730469s16.480469-36.730469 36.730469-36.730469c9.8125 0 19.039062 3.820313 25.976562 10.757813 2.925782 2.929687 2.925782 7.675781 0 10.605468-2.929687 2.929688-7.679687 2.929688-10.609374 0-4.105469-4.105468-9.5625-6.363281-15.363282-6.363281-11.984375 0-21.730468 9.746094-21.730468 21.726563 0 11.984375 9.746093 21.734375 21.730468 21.734375h83.164063c4.144531 0 7.5 3.355469 7.5 7.5s-3.359375 7.5-7.5 7.5zm0 0" fill="#fff"/><path d="m264.019531 192.980469c-5.269531-2.433594-9.542969-6.796875-11.820312-12.441407l-23.046875-57.105468c-5.6875-14.097656-19.1875-23.207032-34.394532-23.207032h-178.605468c-8.921875 0-16.152344 7.234376-16.152344 16.152344 0 8.921875 7.230469 16.152344 16.152344 16.152344h178.605468c1.960938 0 3.703126 1.175781 4.4375 2.996094l23.046876 57.101562c8.535156 21.148438 28.785156 34.808594 51.585937 34.808594h10.9375c-15.269531-8.660156-20.324219-22.703125-20.746094-34.457031zm0 0" fill="#ebd15e"/></svg>